<svg width="77" height="28" viewBox="0 0 77 28" fill="none" xmlns="http://www.w3.org/2000/svg"><path d="M10.9143 0.915311C11.8953 0.348915 13.104 0.348915 14.085 0.915311L22.9014 6.00542C23.8824 6.57182 24.4867 7.61856 24.4867 8.75135V18.9316C24.4867 20.0644 23.8824 21.1111 22.9014 21.6775L14.085 26.7676C13.104 27.334 11.8953 27.334 10.9143 26.7676L2.09797 21.6775C1.11695 21.1111 0.512608 20.0644 0.512608 18.9316V8.75135C0.512608 7.61856 1.11695 6.57182 2.09797 6.00542L10.9143 0.915311Z" fill="#4D53E8"/><circle cx="12.4393" cy="14.2694" r="9.14634" fill="#46C0D1"/><path opacity="0.4" d="M10.8095 4.02449C11.5605 2.72367 13.4381 2.72367 14.1891 4.02449L22.2685 18.0184C23.0195 19.3192 22.0807 20.9452 20.5787 20.9452H4.4199C2.91785 20.9452 1.97907 19.3192 2.7301 18.0184L10.8095 4.02449Z" fill="white"/><mask id="mask0_8002_15641" style="mask-type:alpha" maskUnits="userSpaceOnUse" x="3" y="5" width="19" height="19"><circle cx="12.4393" cy="14.2694" r="9.14634" fill="#BDBDBD"/></mask><g mask="url(#mask0_8002_15641)"><path d="M10.8114 4.02644C11.5625 2.72563 13.44 2.72563 14.191 4.02644L22.2704 18.0203C23.0215 19.3212 22.0827 20.9472 20.5806 20.9472H4.42186C2.91981 20.9472 1.98102 19.3212 2.73205 18.0203L10.8114 4.02644Z" fill="white"/></g><path d="M18.2446 18.5863C17.6736 18.916 16.97 18.916 16.3989 18.5863L11.267 15.6234C10.6959 15.2937 10.3441 14.6844 10.3441 14.025L10.3441 8.09906C10.3441 7.43966 10.6959 6.83035 11.267 6.50065L16.3989 3.53769C16.97 3.208 17.6736 3.208 18.2446 3.5377L23.3766 6.50065C23.9477 6.83035 24.2995 7.43966 24.2995 8.09906L24.2995 14.025C24.2995 14.6844 23.9477 15.2937 23.3766 15.6234L18.2446 18.5863Z" fill="#4D53E8"/><circle cx="17.3575" cy="10.8126" r="5.32409" transform="rotate(-180 17.3575 10.8126)" fill="#46C0D1"/><path opacity="0.4" d="M18.3049 16.7768C17.8677 17.534 16.7748 17.534 16.3376 16.7768L11.6346 8.6309C11.1974 7.8737 11.7439 6.92719 12.6182 6.92719L22.0243 6.92719C22.8986 6.92719 23.4451 7.8737 23.0079 8.6309L18.3049 16.7768Z" fill="white"/><mask id="mask1_8002_15641" style="mask-type:alpha" maskUnits="userSpaceOnUse" x="12" y="5" width="11" height="12"><circle cx="17.3575" cy="10.8126" r="5.32409" transform="rotate(-180 17.3575 10.8126)" fill="#32B4E8"/></mask><g mask="url(#mask1_8002_15641)"><path d="M18.3049 16.7768C17.8677 17.534 16.7748 17.534 16.3376 16.7768L11.6346 8.6309C11.1974 7.8737 11.7439 6.92719 12.6182 6.92719L22.0243 6.92719C22.8986 6.92719 23.4451 7.8737 23.0079 8.6309L18.3049 16.7768Z" fill="white"/></g><path d="M19.5842 5.73949C19.8848 5.56591 20.2552 5.56591 20.5559 5.73949L23.2577 7.29942C23.5584 7.473 23.7436 7.79378 23.7436 8.14094V11.2608C23.7436 11.6079 23.5584 11.9287 23.2577 12.1023L20.5559 13.6622C20.2552 13.8358 19.8848 13.8358 19.5842 13.6622L16.8823 12.1023C16.5816 11.9287 16.3964 11.6079 16.3964 11.2608V8.14094C16.3964 7.79378 16.5816 7.473 16.8823 7.29942L19.5842 5.73949Z" fill="#4D53E8"/><circle cx="20.0511" cy="9.8323" r="2.803" fill="#46C0D1"/><path opacity="0.4" d="M19.5508 6.69188C19.781 6.29323 20.3564 6.29323 20.5865 6.69188L23.0626 10.9805C23.2927 11.3791 23.005 11.8774 22.5447 11.8774H17.5927C17.1323 11.8774 16.8446 11.3791 17.0748 10.9805L19.5508 6.69188Z" fill="white"/><mask id="mask2_8002_15641" style="mask-type:alpha" maskUnits="userSpaceOnUse" x="17" y="7" width="6" height="6"><circle cx="20.0511" cy="9.8323" r="2.803" fill="#32B4E8"/></mask><g mask="url(#mask2_8002_15641)"><path d="M19.5508 6.69188C19.781 6.29323 20.3564 6.29323 20.5865 6.69188L23.0626 10.9805C23.2927 11.3791 23.005 11.8774 22.5447 11.8774H17.5927C17.1323 11.8774 16.8446 11.3791 17.0748 10.9805L19.5508 6.69188Z" fill="white"/></g><path d="M35.9757 19.3418V8.11536H40.4049C41.2564 8.11536 41.9818 8.27798 42.5811 8.60323C43.1805 8.92482 43.6373 9.37249 43.9515 9.94624C44.2695 10.5163 44.4285 11.1741 44.4285 11.9196C44.4285 12.6651 44.2677 13.3229 43.9461 13.893C43.6245 14.4631 43.1585 14.9071 42.5482 15.2251C41.9416 15.543 41.2071 15.702 40.3446 15.702H37.5216V13.7998H39.9609C40.4177 13.7998 40.7941 13.7213 41.0901 13.5641C41.3898 13.4033 41.6127 13.1822 41.7589 12.9008C41.9087 12.6158 41.9836 12.2887 41.9836 11.9196C41.9836 11.5469 41.9087 11.2216 41.7589 10.9439C41.6127 10.6625 41.3898 10.4451 41.0901 10.2916C40.7905 10.1344 40.4104 10.0559 39.9499 10.0559H38.3493V19.3418H35.9757ZM52.9319 13.3229L50.794 13.4545C50.7575 13.2718 50.6789 13.1073 50.5583 12.9611C50.4377 12.8113 50.2787 12.6925 50.0814 12.6048C49.8877 12.5135 49.6557 12.4678 49.3852 12.4678C49.0234 12.4678 48.7183 12.5445 48.4698 12.698C48.2213 12.8479 48.097 13.0489 48.097 13.301C48.097 13.502 48.1774 13.6719 48.3382 13.8108C48.499 13.9497 48.7749 14.0611 49.166 14.1452L50.6899 14.4522C51.5085 14.6203 52.1188 14.8907 52.5207 15.2634C52.9227 15.6362 53.1237 16.1259 53.1237 16.7325C53.1237 17.2843 52.9611 17.7686 52.6359 18.1852C52.3143 18.6018 51.8721 18.927 51.3093 19.1609C50.7502 19.3911 50.1052 19.5062 49.3743 19.5062C48.2597 19.5062 47.3716 19.2742 46.7102 18.8101C46.0524 18.3423 45.6668 17.7064 45.5536 16.9025L47.8504 16.7819C47.9198 17.1217 48.0879 17.3812 48.3547 17.5603C48.6215 17.7357 48.9632 17.8234 49.3798 17.8234C49.7891 17.8234 50.118 17.7448 50.3665 17.5877C50.6186 17.4269 50.7465 17.2204 50.7502 16.9682C50.7465 16.7563 50.657 16.5827 50.4816 16.4475C50.3062 16.3086 50.0357 16.2026 49.6703 16.1295L48.2122 15.839C47.3899 15.6746 46.7778 15.3895 46.3758 14.9839C45.9775 14.5782 45.7783 14.0611 45.7783 13.4326C45.7783 12.8917 45.9245 12.4258 46.2168 12.0347C46.5129 11.6437 46.9276 11.3422 47.4612 11.1303C47.9984 10.9183 48.6269 10.8123 49.3469 10.8123C50.4103 10.8123 51.2472 11.0371 51.8575 11.4866C52.4714 11.9361 52.8295 12.5482 52.9319 13.3229ZM56.0359 22.4992C55.7399 22.4992 55.4621 22.4755 55.2026 22.428C54.9468 22.3841 54.7349 22.3275 54.5668 22.258L55.093 20.5149C55.3671 20.5989 55.6138 20.6446 55.833 20.6519C56.056 20.6592 56.2478 20.6081 56.4086 20.4984C56.5731 20.3888 56.7064 20.2024 56.8088 19.9393L56.9458 19.583L53.9254 10.922H56.3812L58.1244 17.1053H58.2121L59.9717 10.922H62.4439L59.1714 20.2518C59.0142 20.7049 58.8004 21.0996 58.53 21.4358C58.2632 21.7757 57.9252 22.0369 57.5159 22.2197C57.1066 22.406 56.6133 22.4992 56.0359 22.4992ZM64.5269 19.3418H63.1017L67.2239 8.11536H68.6272L72.7494 19.3418H71.3242L67.9694 9.89142H67.8817L64.5269 19.3418ZM65.0532 14.9565H70.798V16.1624H65.0532V14.9565ZM74.4131 19.3418V10.922H75.7068V19.3418H74.4131ZM75.0709 9.51867C74.8188 9.51867 74.6013 9.43279 74.4186 9.26103C74.2395 9.08927 74.15 8.88279 74.15 8.6416C74.15 8.40041 74.2395 8.19393 74.4186 8.02217C74.6013 7.85042 74.8188 7.76454 75.0709 7.76454C75.3231 7.76454 75.5387 7.85042 75.7178 8.02217C75.9005 8.19393 75.9918 8.40041 75.9918 8.6416C75.9918 8.88279 75.9005 9.08927 75.7178 9.26103C75.5387 9.43279 75.3231 9.51867 75.0709 9.51867Z" fill="black"/></svg>